G04*
G04 #@! TF.GenerationSoftware,Altium Limited,Altium Designer,19.1.7 (138)*
G04*
G04 Layer_Physical_Order=1*
G04 Layer_Color=255*
%FSLAX25Y25*%
%MOIN*%
G70*
G01*
G75*
%ADD13C,0.01181*%
%ADD14C,0.01000*%
%ADD15C,0.07087*%
%ADD16C,0.06693*%
D13*
X149000Y178126D02*
Y243426D01*
X142400Y250026D02*
X149000Y243426D01*
X133800Y162926D02*
X149000Y178126D01*
X112750Y242776D02*
X128350D01*
X112700Y242826D02*
X112750Y242776D01*
X22700Y212926D02*
X30000Y205626D01*
X136000Y270126D02*
X141900Y276026D01*
X136000Y246126D02*
Y270126D01*
Y246126D02*
X142000Y240126D01*
X112800Y282926D02*
X128800D01*
X112800Y292926D02*
X127800D01*
X112800Y232926D02*
X133000Y212726D01*
Y199426D02*
X142400Y190026D01*
X133000Y199426D02*
Y212726D01*
X136000Y216426D02*
Y233626D01*
Y216426D02*
X142400Y210026D01*
X136000Y233626D02*
X142500Y240126D01*
X131000D02*
X142000D01*
X128350Y242776D02*
X131000Y240126D01*
X131900Y286026D02*
X141900D01*
X128800Y282926D02*
X131900Y286026D01*
X112800Y162926D02*
X133800D01*
X145100Y306026D02*
X149000Y302126D01*
Y256626D02*
Y302126D01*
X142400Y250026D02*
X149000Y256626D01*
X30000Y170126D02*
Y205626D01*
X23000Y163126D02*
X30000Y170126D01*
X112750Y242776D02*
X113000Y243026D01*
X22800Y162926D02*
X23000Y163126D01*
X22700Y162926D02*
X22800D01*
X142000Y240126D02*
X142500D01*
X141900Y306026D02*
X145100D01*
X127800Y292926D02*
X131000Y296126D01*
X142000D01*
D14*
X23000Y162126D02*
Y163126D01*
D15*
X113100Y233126D02*
D03*
Y223126D02*
D03*
Y213126D02*
D03*
Y203126D02*
D03*
Y193126D02*
D03*
Y183126D02*
D03*
X113000Y173026D02*
D03*
X113100Y163126D02*
D03*
Y303126D02*
D03*
Y293126D02*
D03*
Y283126D02*
D03*
Y273126D02*
D03*
Y263126D02*
D03*
Y253126D02*
D03*
X113000Y243026D02*
D03*
X23000Y233126D02*
D03*
Y243126D02*
D03*
Y253126D02*
D03*
X23100Y263126D02*
D03*
X23000Y273126D02*
D03*
Y283126D02*
D03*
X23100Y293226D02*
D03*
X23000Y303126D02*
D03*
Y163126D02*
D03*
Y173126D02*
D03*
Y183126D02*
D03*
X23100Y193126D02*
D03*
X23000Y203126D02*
D03*
Y213126D02*
D03*
X23100Y223226D02*
D03*
X141900Y306026D02*
D03*
X142000Y296126D02*
D03*
X141900Y286026D02*
D03*
Y276026D02*
D03*
X142000Y266026D02*
D03*
D16*
X142400Y250026D02*
D03*
X142500Y240126D02*
D03*
X142400Y230026D02*
D03*
Y220026D02*
D03*
Y210026D02*
D03*
Y200026D02*
D03*
Y190026D02*
D03*
Y180026D02*
D03*
M02*
