G04*
G04 #@! TF.GenerationSoftware,Altium Limited,Altium Designer,19.1.7 (138)*
G04*
G04 Layer_Physical_Order=2*
G04 Layer_Color=16711680*
%FSLAX25Y25*%
%MOIN*%
G70*
G01*
G75*
%ADD13C,0.01968*%
%ADD14C,0.01181*%
%ADD15C,0.06693*%
%ADD16C,0.07087*%
D13*
X107500Y315000D02*
X134200D01*
X100000Y307500D02*
X107500Y315000D01*
X100000Y255000D02*
Y307500D01*
X134200Y315000D02*
X139100Y310100D01*
X137500Y145000D02*
X139000D01*
X132500Y150000D02*
X137500Y145000D01*
X132500Y150000D02*
Y168500D01*
X108200Y245700D02*
X109300D01*
X100000Y237500D02*
X108200Y245700D01*
X100000Y185400D02*
Y237500D01*
Y185400D02*
X109700Y175700D01*
X19700Y215800D02*
X27500Y208000D01*
Y182500D02*
Y208000D01*
X20800Y175800D02*
X27500Y182500D01*
X132500Y168500D02*
X139100Y175100D01*
X109300Y245700D02*
X109700D01*
X100000Y255000D02*
X109300Y245700D01*
X19700Y175800D02*
X20800D01*
X19700D02*
X19800Y175700D01*
X109700D01*
X138500D02*
X139100Y175100D01*
X109700Y175700D02*
X138500D01*
D14*
X145000Y171000D02*
Y294000D01*
X139000Y165000D02*
X145000Y171000D01*
X139000Y300000D02*
X145000Y294000D01*
D15*
X174669Y31496D02*
D03*
X194669Y51496D02*
D03*
X154669D02*
D03*
X104669Y31496D02*
D03*
X124669Y51496D02*
D03*
X84669D02*
D03*
X35000Y31496D02*
D03*
X55000Y51496D02*
D03*
X15000D02*
D03*
X139000Y185000D02*
D03*
X139100Y175100D02*
D03*
X139000Y165000D02*
D03*
Y155000D02*
D03*
Y145000D02*
D03*
Y135000D02*
D03*
Y125000D02*
D03*
Y115000D02*
D03*
Y95000D02*
D03*
Y105000D02*
D03*
Y320000D02*
D03*
X139100Y310100D02*
D03*
X139000Y300000D02*
D03*
Y290000D02*
D03*
Y280000D02*
D03*
Y270000D02*
D03*
Y260000D02*
D03*
Y250000D02*
D03*
Y230000D02*
D03*
Y240000D02*
D03*
X120000Y115000D02*
D03*
X119900Y124900D02*
D03*
X120000Y95000D02*
D03*
X119900Y104900D02*
D03*
X190100Y202600D02*
D03*
X190000Y212500D02*
D03*
D16*
X19800Y225900D02*
D03*
X19700Y215800D02*
D03*
Y205800D02*
D03*
X19800Y195800D02*
D03*
X19700Y185800D02*
D03*
Y175800D02*
D03*
Y165800D02*
D03*
Y305800D02*
D03*
X19800Y295900D02*
D03*
X19700Y285800D02*
D03*
Y275800D02*
D03*
X19800Y265800D02*
D03*
X19700Y255800D02*
D03*
Y245800D02*
D03*
Y235800D02*
D03*
X109700Y245700D02*
D03*
X109800Y255800D02*
D03*
Y265800D02*
D03*
Y275800D02*
D03*
Y285800D02*
D03*
Y295800D02*
D03*
Y305800D02*
D03*
Y165800D02*
D03*
X109700Y175700D02*
D03*
X109800Y185800D02*
D03*
Y195800D02*
D03*
Y205800D02*
D03*
Y215800D02*
D03*
Y225800D02*
D03*
Y235800D02*
D03*
M02*
