G04*
G04 #@! TF.GenerationSoftware,Altium Limited,Altium Designer,19.1.7 (138)*
G04*
G04 Layer_Color=65535*
%FSLAX25Y25*%
%MOIN*%
G70*
G01*
G75*
%ADD10C,0.00394*%
D10*
X186800Y218426D02*
Y221575D01*
X188374D01*
X188899Y221050D01*
Y220000D01*
X188374Y219476D01*
X186800D01*
X187849D02*
X188899Y218426D01*
X192048Y221575D02*
X189949D01*
Y220000D01*
X190998Y220525D01*
X191523D01*
X192048Y220000D01*
Y218951D01*
X191523Y218426D01*
X190473D01*
X189949Y218951D01*
X116700Y110826D02*
Y113975D01*
X118274D01*
X118799Y113450D01*
Y112400D01*
X118274Y111875D01*
X116700D01*
X117750D02*
X118799Y110826D01*
X121423D02*
Y113975D01*
X119849Y112400D01*
X121948D01*
X116700Y130826D02*
Y133975D01*
X118274D01*
X118799Y133450D01*
Y132400D01*
X118274Y131876D01*
X116700D01*
X117750D02*
X118799Y130826D01*
X119849Y133450D02*
X120373Y133975D01*
X121423D01*
X121948Y133450D01*
Y132925D01*
X121423Y132400D01*
X120898D01*
X121423D01*
X121948Y131876D01*
Y131351D01*
X121423Y130826D01*
X120373D01*
X119849Y131351D01*
X174599Y25649D02*
X173549D01*
X174074D01*
Y23025D01*
X173549Y22500D01*
X173025D01*
X172500Y23025D01*
X175649Y25124D02*
X176173Y25649D01*
X177223D01*
X177748Y25124D01*
Y24599D01*
X177223Y24074D01*
X176698D01*
X177223D01*
X177748Y23550D01*
Y23025D01*
X177223Y22500D01*
X176173D01*
X175649Y23025D01*
X104599Y25649D02*
X103550D01*
X104074D01*
Y23025D01*
X103550Y22500D01*
X103025D01*
X102500Y23025D01*
X107748Y22500D02*
X105649D01*
X107748Y24599D01*
Y25124D01*
X107223Y25649D01*
X106173D01*
X105649Y25124D01*
X34599Y25649D02*
X33549D01*
X34074D01*
Y23025D01*
X33549Y22500D01*
X33025D01*
X32500Y23025D01*
X35649Y22500D02*
X36698D01*
X36173D01*
Y25649D01*
X35649Y25124D01*
X165000Y275649D02*
X166050D01*
X165525D01*
Y272500D01*
X165000D01*
X166050D01*
X169723Y275124D02*
X169198Y275649D01*
X168149D01*
X167624Y275124D01*
Y273025D01*
X168149Y272500D01*
X169198D01*
X169723Y273025D01*
X170772Y275124D02*
X171297Y275649D01*
X172347D01*
X172871Y275124D01*
Y274599D01*
X172347Y274074D01*
X171822D01*
X172347D01*
X172871Y273550D01*
Y273025D01*
X172347Y272500D01*
X171297D01*
X170772Y273025D01*
X165000Y138149D02*
X166050D01*
X165525D01*
Y135000D01*
X165000D01*
X166050D01*
X169723Y137624D02*
X169198Y138149D01*
X168149D01*
X167624Y137624D01*
Y135525D01*
X168149Y135000D01*
X169198D01*
X169723Y135525D01*
X170772Y135000D02*
X171822D01*
X171297D01*
Y138149D01*
X170772Y137624D01*
X57500Y228149D02*
X58549D01*
X58025D01*
Y225000D01*
X57500D01*
X58549D01*
X62223Y227624D02*
X61698Y228149D01*
X60649D01*
X60124Y227624D01*
Y225525D01*
X60649Y225000D01*
X61698D01*
X62223Y225525D01*
X65372Y225000D02*
X63272D01*
X65372Y227099D01*
Y227624D01*
X64847Y228149D01*
X63797D01*
X63272Y227624D01*
M02*
