M48
;Layer_Color=15238730
;FILE_FORMAT=2:5
INCH,LZ
;TYPE=PLATED
T1F00S00C0.04016
%
T01
X0023Y0163126
Y0173126
X0113Y0173026
X01131Y0163126
Y0183126
Y0193126
Y0203126
Y0213126
Y0223126
Y0233126
X0113Y0243026
X01131Y0253126
Y0263126
Y0273126
Y0283126
Y0293126
Y0303126
X01419Y0306026
X0142Y0296126
X01419Y0286026
Y0276026
X0142Y0266026
X01424Y0250026
X01425Y0240126
X01424Y0230026
Y0220026
Y0210026
Y0200026
Y0190026
Y0180026
X0023Y0183126
X00231Y0193126
X0023Y0203126
Y0213126
X00231Y0223226
X0023Y0233126
Y0243126
Y0253126
X00231Y0263126
X0023Y0273126
Y0283126
X00231Y0293226
X0023Y0303126
M30
