M48
;Layer_Color=15238730
;FILE_FORMAT=2:5
INCH,LZ
;TYPE=PLATED
T1F00S00C0.04016
%
T01
X0035Y0031496
X0055Y0051496
X0015
X00197Y01658
X01098
X0139Y0165
Y0155
Y0145
Y0135
Y0125
Y0115
Y0105
Y0095
X012
X01199Y01049
X012Y0115
X01199Y01249
X0124669Y0051496
X0154669
X0174669Y0031496
X0194669Y0051496
X0104669Y0031496
X0084669Y0051496
X01097Y01757
X01098Y01858
Y01958
Y02058
Y02158
Y02258
Y02358
X01097Y02457
X01098Y02558
Y02658
Y02758
Y02858
Y02958
Y03058
X01391Y03101
X0139Y032
Y03
Y029
Y028
Y027
Y026
Y025
Y024
Y023
Y0185
X01391Y01751
X01901Y02026
X019Y02125
X00197Y02158
Y02058
X00198Y01958
X00197Y01858
Y01758
X00198Y02259
X00197Y02358
Y02458
Y02558
X00198Y02658
X00197Y02758
Y02858
X00198Y02959
X00197Y03058
M30
